<svg width="54" height="51" viewBox="0 0 54 51" fill="none" xmlns="http://www.w3.org/2000/svg">
<path d="M12 24H7C5.67392 24 4.40215 23.4732 3.46447 22.5355C2.52678 21.5978 2 20.3261 2 19V6.5C2 5.17392 2.52678 3.90215 3.46447 2.96447C4.40215 2.02678 5.67392 1.5 7 1.5H47C48.3261 1.5 49.5979 2.02678 50.5355 2.96447C51.4732 3.90215 52 5.17392 52 6.5V19C52 20.3261 51.4732 21.5978 50.5355 22.5355C49.5979 23.4732 48.3261 24 47 24H42M12 14H42M42.75 38.25C43.8078 39.356 44.423 40.8116 44.4791 42.3409C44.5351 43.8703 44.0281 45.367 43.0542 46.5475C42.0802 47.7279 40.707 48.51 39.1949 48.7455C37.6827 48.9809 36.1368 48.6534 34.85 47.825C34.0134 47.2764 33.3188 46.5371 32.8234 45.6679C32.3279 44.7987 32.0457 43.8244 32 42.825V24M13.5 33C12.9093 33.5792 12.4715 34.2959 12.2259 35.086C11.9803 35.876 11.9346 36.7146 12.0928 37.5266C12.2511 38.3387 12.6083 39.0987 13.1326 39.7387C13.6569 40.3787 14.3317 40.8786 15.0967 41.1936C15.8617 41.5086 16.6929 41.6289 17.5159 41.5436C18.3388 41.4583 19.1276 41.1702 19.8118 40.705C20.496 40.2399 21.054 39.6122 21.4359 38.8783C21.8178 38.1444 22.0116 37.3272 22 36.5V24" stroke="#BDA16B" stroke-width="3" stroke-linecap="round" stroke-linejoin="round"/>
</svg>
