<svg width="17" height="18" viewBox="0 0 17 18" fill="none" xmlns="http://www.w3.org/2000/svg">
<path d="M0.833496 4.83333V3.16667C0.833496 2.72464 1.00909 2.30072 1.32165 1.98816C1.63421 1.67559 2.05814 1.5 2.50016 1.5H4.16683M12.5002 1.5H14.1668C14.6089 1.5 15.0328 1.67559 15.3453 1.98816C15.6579 2.30072 15.8335 2.72464 15.8335 3.16667V4.83333M15.8335 13.1667V14.8333C15.8335 15.2754 15.6579 15.6993 15.3453 16.0118C15.0328 16.3244 14.6089 16.5 14.1668 16.5H12.5002M4.16683 16.5H2.50016C2.05814 16.5 1.63421 16.3244 1.32165 16.0118C1.00909 15.6993 0.833496 15.2754 0.833496 14.8333V13.1667" stroke="#BDA16B" stroke-width="1.66667" stroke-linecap="round" stroke-linejoin="round"/>
</svg>
