<svg width="19" height="17" viewBox="0 0 19 17" fill="none" xmlns="http://www.w3.org/2000/svg">
<path d="M7.66667 1.83642L6 3.50309M13.5 14.3364V16.0031M1 8.50309H17.6667M5.16667 14.3364V16.0031M6.83333 2.66976L5.68417 1.52059C5.44318 1.27848 5.13719 1.11139 4.80323 1.03954C4.46927 0.96769 4.12165 0.994153 3.80241 1.11573C3.48317 1.2373 3.20601 1.44878 3.00445 1.72458C2.80288 2.00038 2.68556 2.32868 2.66667 2.66976V12.6698C2.66667 13.1118 2.84226 13.5357 3.15482 13.8483C3.46738 14.1608 3.89131 14.3364 4.33333 14.3364H14.3333C14.7754 14.3364 15.1993 14.1608 15.5118 13.8483C15.8244 13.5357 16 13.1118 16 12.6698V8.50309" stroke="#BDA16B" stroke-width="1.66667" stroke-linecap="round" stroke-linejoin="round"/>
</svg>
