<svg width="19" height="16" viewBox="0 0 19 16" fill="none" xmlns="http://www.w3.org/2000/svg">
<path d="M1 14.6667V8.00004C1 7.55801 1.17559 7.13409 1.48816 6.82153C1.80072 6.50897 2.22464 6.33337 2.66667 6.33337M2.66667 6.33337H16M2.66667 6.33337V3.00004C2.66667 2.55801 2.84226 2.13409 3.15482 1.82153C3.46738 1.50897 3.89131 1.33337 4.33333 1.33337H14.3333C14.7754 1.33337 15.1993 1.50897 15.5118 1.82153C15.8244 2.13409 16 2.55801 16 3.00004V6.33337M16 6.33337C16.442 6.33337 16.866 6.50897 17.1785 6.82153C17.4911 7.13409 17.6667 7.55801 17.6667 8.00004V14.6667M9.33333 1.33337V6.33337M1 13H17.6667" stroke="#BDA16B" stroke-width="1.66667" stroke-linecap="round" stroke-linejoin="round"/>
</svg>
