<svg width="48" height="40" viewBox="0 0 48 40" fill="none" xmlns="http://www.w3.org/2000/svg">
<path d="M46.5 9.0001L41.5 14.0001M41.5 14.0001L37.75 4.7501C37.3964 3.80344 36.7642 2.98616 35.9367 2.40598C35.1093 1.82581 34.1255 1.50997 33.115 1.5001H15C13.9813 1.4767 12.9797 1.76513 12.1294 2.32676C11.2792 2.88839 10.6208 3.69641 10.2425 4.6426L6.5 14.0001M41.5 14.0001H6.5M41.5 14.0001C44.2614 14.0001 46.5 16.2387 46.5 19.0001V29.0001C46.5 31.7615 44.2614 34.0001 41.5 34.0001M6.5 14.0001L1.5 9.0001M6.5 14.0001C3.73858 14.0001 1.5 16.2387 1.5 19.0001V29.0001C1.5 31.7615 3.73858 34.0001 6.5 34.0001M11.5 24.0001H11.525M36.5 24.0001H36.525M41.5 34.0001H6.5M41.5 34.0001V39.0001M6.5 34.0001L6.5 39.0001" stroke="#BDA16B" stroke-width="2" stroke-linecap="round" stroke-linejoin="round"/>
</svg>
