<svg width="51" height="51" viewBox="0 0 51 51" fill="none" xmlns="http://www.w3.org/2000/svg">
<path d="M19 2V7M29 2V7M34 17C34.663 17 35.2989 17.2634 35.7678 17.7322C36.2366 18.2011 36.5 18.837 36.5 19.5V39.5C36.5 42.1522 35.4464 44.6957 33.5711 46.5711C31.6957 48.4464 29.1522 49.5 26.5 49.5H11.5C8.84783 49.5 6.3043 48.4464 4.42893 46.5711C2.55357 44.6957 1.5 42.1522 1.5 39.5V19.5C1.5 18.837 1.76339 18.2011 2.23223 17.7322C2.70107 17.2634 3.33696 17 4 17H39C41.6522 17 44.1957 18.0536 46.0711 19.9289C47.9464 21.8043 49 24.3478 49 27C49 29.6522 47.9464 32.1957 46.0711 34.0711C44.1957 35.9464 41.6522 37 39 37H36.5M9 2V7" stroke="#BDA16B" stroke-width="3" stroke-linecap="round" stroke-linejoin="round"/>
</svg>
