<svg width="54" height="54" viewBox="0 0 54 54" fill="none" xmlns="http://www.w3.org/2000/svg">
<path d="M32.9999 32.9999L20.9999 20.9999M50.7499 50.7499L47.2499 47.2499M6.74989 6.74989L3.24989 3.24989M43.6424 50.7124C42.7049 51.6503 41.4331 52.1773 40.107 52.1775C38.7809 52.1778 37.509 51.6512 36.5711 50.7136C35.6333 49.7761 35.1063 48.5044 35.106 47.1783C35.1058 45.8522 35.6324 44.5803 36.5699 43.6424L32.1524 48.0624C31.2145 49.0003 29.9425 49.5272 28.6161 49.5272C27.2898 49.5272 26.0178 49.0003 25.0799 48.0624C24.142 47.1245 23.6151 45.8525 23.6151 44.5261C23.6151 43.1998 24.142 41.9278 25.0799 40.9899L40.9899 25.0799C41.9278 24.142 43.1998 23.6151 44.5261 23.6151C45.8525 23.6151 47.1245 24.142 48.0624 25.0799C49.0003 26.0178 49.5272 27.2898 49.5272 28.6161C49.5272 29.9425 49.0003 31.2145 48.0624 32.1524L43.6424 36.5699C44.5803 35.6324 45.8522 35.1058 47.1783 35.106C48.5044 35.1063 49.7761 35.6333 50.7136 36.5711C51.6512 37.509 52.1778 38.7809 52.1775 40.107C52.1773 41.4331 51.6503 42.7049 50.7124 43.6424L43.6424 50.7124ZM13.0099 28.9199C12.072 29.8578 10.8 30.3847 9.47364 30.3847C8.14729 30.3847 6.87527 29.8578 5.93739 28.9199C4.99952 27.982 4.47263 26.71 4.47263 25.3836C4.47263 24.0573 4.99952 22.7853 5.93739 21.8474L10.3574 17.4299C9.89301 17.8941 9.34173 18.2623 8.73504 18.5135C8.12836 18.7647 7.47814 18.8939 6.82151 18.8938C5.49539 18.8935 4.22368 18.3665 3.28614 17.4286C2.82192 16.9643 2.45371 16.413 2.20254 15.8063C1.95137 15.1996 1.82215 14.5494 1.82227 13.8928C1.8225 12.5666 2.34952 11.2949 3.28739 10.3574L10.3574 3.28739C11.2949 2.34952 12.5666 1.8225 13.8928 1.82227C14.5494 1.82215 15.1996 1.95137 15.8063 2.20254C16.413 2.45371 16.9643 2.82192 17.4286 3.28614C17.893 3.75037 18.2614 4.30151 18.5128 4.90811C18.7642 5.51471 18.8937 6.16488 18.8938 6.82151C18.8939 7.47814 18.7647 8.12836 18.5135 8.73504C18.2623 9.34173 17.8941 9.89301 17.4299 10.3574L21.8474 5.93739C22.7853 4.99952 24.0573 4.47263 25.3836 4.47263C26.71 4.47263 27.982 4.99952 28.9199 5.93739C29.8578 6.87527 30.3847 8.14729 30.3847 9.47364C30.3847 10.8 29.8578 12.072 28.9199 13.0099L13.0099 28.9199Z" stroke="#BDA16B" stroke-width="2" stroke-linecap="round" stroke-linejoin="round"/>
</svg>
