<svg width="54" height="54" viewBox="0 0 54 54" fill="none" xmlns="http://www.w3.org/2000/svg">
<path d="M27 4.5V2M27 4.5C22.3587 4.5 17.9075 6.34374 14.6256 9.62563C11.3437 12.9075 9.5 17.3587 9.5 22M27 4.5C31.6413 4.5 36.0925 6.34374 39.3744 9.62563C42.6563 12.9075 44.5 17.3587 44.5 22M35.5 40.5L43.5 33.5C43.976 33.0404 44.538 32.679 45.1536 32.4365C45.7693 32.1941 46.4268 32.0753 47.0884 32.0869C47.75 32.0985 48.4029 32.2403 49.0097 32.5042C49.6165 32.7681 50.1654 33.149 50.625 33.625C51.0846 34.101 51.446 34.663 51.6884 35.2786C51.9309 35.8943 52.0497 36.5518 52.0381 37.2134C52.0265 37.875 51.8847 38.5279 51.6208 39.1347C51.3569 39.7415 50.976 40.2904 50.5 40.75L41.5 49C39.75 51 37.25 52 34.5 52H24.5C21.75 52 19.25 51 17.5 49L14.245 45.34C14.0106 45.0761 13.7231 44.8648 13.4012 44.72C13.0793 44.5752 12.7304 44.5003 12.3775 44.5H9.5M2 32H32C33.3261 32 34.5979 32.5268 35.5355 33.4645C36.4732 34.4021 37 35.6739 37 37C37 38.3261 36.4732 39.5979 35.5355 40.5355C34.5979 41.4732 33.3261 42 32 42H27M7 22H47M9.5 32V47C9.5 47.663 9.23661 48.2989 8.76777 48.7678C8.29893 49.2366 7.66304 49.5 7 49.5H2" stroke="#BDA16B" stroke-width="3" stroke-linecap="round" stroke-linejoin="round"/>
</svg>
