<svg width="21" height="21" viewBox="0 0 21 21" fill="none" xmlns="http://www.w3.org/2000/svg">
<g clip-path="url(#clip0_470_69)">
<path d="M20.9887 10.6965C20.9887 9.8361 20.9173 9.20826 20.7627 8.55718H10.709V12.4404H16.6103C16.4913 13.4055 15.8489 14.8588 14.4211 15.8354L14.4011 15.9654L17.5799 18.3718L17.8001 18.3933C19.8227 16.5679 20.9887 13.8821 20.9887 10.6965Z" fill="#4285F4"/>
<path d="M10.709 20.9279C13.6001 20.9279 16.0273 19.9977 17.8001 18.3933L14.4211 15.8354C13.5169 16.4516 12.3033 16.8818 10.709 16.8818C7.8773 16.8818 5.47395 15.0564 4.61722 12.5335L4.49165 12.5439L1.18629 15.0436L1.14307 15.161C2.90393 18.5792 6.52089 20.9279 10.709 20.9279Z" fill="#34A853"/>
<path d="M4.6173 12.5335C4.39125 11.8824 4.26042 11.1847 4.26042 10.4639C4.26042 9.74304 4.39125 9.04547 4.60541 8.39439L4.59942 8.25573L1.25264 5.71585L1.14314 5.76675C0.417406 7.18521 0.000976562 8.77808 0.000976562 10.4639C0.000976562 12.1498 0.417406 13.7426 1.14314 15.161L4.6173 12.5335Z" fill="#FBBC05"/>
<path d="M10.709 4.04603C12.7197 4.04603 14.076 4.89477 14.8494 5.60404L17.8715 2.72063C16.0154 1.03478 13.6001 7.62939e-06 10.709 7.62939e-06C6.52089 7.62939e-06 2.90393 2.34856 1.14307 5.76675L4.60533 8.3944C5.47395 5.87143 7.8773 4.04603 10.709 4.04603Z" fill="#EB4335"/>
</g>
<defs>
<clipPath id="clip0_470_69">
<rect width="21" height="21" fill="white"/>
</clipPath>
</defs>
</svg>
