<svg width="60" height="60" viewBox="0 0 60 60" fill="none" xmlns="http://www.w3.org/2000/svg">
<path d="M27.5 35H32.5C33.8261 35 35.0979 34.4732 36.0355 33.5355C36.9732 32.5979 37.5 31.3261 37.5 30C37.5 28.6739 36.9732 27.4022 36.0355 26.4645C35.0979 25.5268 33.8261 25 32.5 25H25C23.5 25 22.25 25.5 21.5 26.5L7.5 40M17.5 50L21.5 46.5C22.25 45.5 23.5 45 25 45H35C37.75 45 40.25 44 42 42L53.5 31C54.4647 30.0883 55.0278 28.8307 55.0653 27.5039C55.1028 26.1771 54.6117 24.8897 53.7 23.925C52.7883 22.9603 51.5307 22.3972 50.2039 22.3597C48.8771 22.3222 47.5897 22.8133 46.625 23.725L36.125 33.475M5 37.5L20 52.5M48.75 21.25C50.5 19.5 52.5 17.25 52.5 14.5C52.6747 12.9723 52.3285 11.4304 51.5173 10.1241C50.7062 8.8178 49.4777 7.82369 48.031 7.30286C46.5842 6.78203 45.004 6.765 43.5463 7.25454C42.0887 7.74408 40.8391 8.71149 40 10C39.1076 8.81146 37.8576 7.94032 36.4336 7.51446C35.0096 7.08861 33.4866 7.13047 32.0882 7.63391C30.6898 8.13735 29.4896 9.07584 28.6638 10.3116C27.838 11.5474 27.4301 13.0154 27.5 14.5C27.5 17.5 29.5 19.5 31.25 21.5L40 30L48.75 21.25Z" stroke="#BDA16B" stroke-width="2" stroke-linecap="round" stroke-linejoin="round"/>
</svg>
