<svg width="54" height="49" viewBox="0 0 54 49" fill="none" xmlns="http://www.w3.org/2000/svg">
<path d="M24.5 30H29.5C30.8261 30 32.0979 29.4732 33.0355 28.5355C33.9732 27.5979 34.5 26.3261 34.5 25C34.5 23.6739 33.9732 22.4022 33.0355 21.4645C32.0979 20.5268 30.8261 20 29.5 20H22C20.5 20 19.25 20.5 18.5 21.5L4.5 35M14.5 45L18.5 41.5C19.25 40.5 20.5 40 22 40H32C34.75 40 37.25 39 39 37L50.5 26C51.4647 25.0883 52.0278 23.8307 52.0653 22.5039C52.1028 21.1771 51.6117 19.8897 50.7 18.925C49.7883 17.9603 48.5307 17.3972 47.2039 17.3597C45.8771 17.3222 44.5897 17.8133 43.625 18.725L33.125 28.475M2 32.5L17 47.5M45.75 16.25C47.5 14.5 49.5 12.25 49.5 9.5C49.6747 7.97232 49.3285 6.43039 48.5173 5.1241C47.7062 3.8178 46.4777 2.82369 45.031 2.30286C43.5842 1.78203 42.004 1.765 40.5463 2.25454C39.0887 2.74408 37.8391 3.71149 37 5C36.1076 3.81146 34.8576 2.94032 33.4336 2.51446C32.0096 2.08861 30.4866 2.13047 29.0882 2.63391C27.6898 3.13735 26.4896 4.07584 25.6638 5.31161C24.838 6.54739 24.4301 8.01535 24.5 9.5C24.5 12.5 26.5 14.5 28.25 16.5L37 25L45.75 16.25Z" stroke="#BDA16B" stroke-width="3" stroke-linecap="round" stroke-linejoin="round"/>
</svg>
