<svg width="53" height="52" viewBox="0 0 53 52" fill="none" xmlns="http://www.w3.org/2000/svg">
<path d="M26 3.5V1M26 3.5C21.3587 3.5 16.9075 5.34374 13.6256 8.62563C10.3437 11.9075 8.5 16.3587 8.5 21M26 3.5C30.6413 3.5 35.0925 5.34374 38.3744 8.62563C41.6563 11.9075 43.5 16.3587 43.5 21M34.5 39.5L42.5 32.5C42.976 32.0404 43.538 31.679 44.1536 31.4365C44.7693 31.1941 45.4268 31.0753 46.0884 31.0869C46.75 31.0985 47.4029 31.2403 48.0097 31.5042C48.6165 31.7681 49.1654 32.149 49.625 32.625C50.0846 33.101 50.446 33.663 50.6884 34.2786C50.9309 34.8943 51.0497 35.5518 51.0381 36.2134C51.0265 36.875 50.8847 37.5279 50.6208 38.1347C50.3569 38.7415 49.976 39.2904 49.5 39.75L40.5 48C38.75 50 36.25 51 33.5 51H23.5C20.75 51 18.25 50 16.5 48L13.245 44.34C13.0106 44.0761 12.7231 43.8648 12.4012 43.72C12.0793 43.5752 11.7304 43.5003 11.3775 43.5H8.5M1 31H31C32.3261 31 33.5979 31.5268 34.5355 32.4645C35.4732 33.4021 36 34.6739 36 36C36 37.3261 35.4732 38.5979 34.5355 39.5355C33.5979 40.4732 32.3261 41 31 41H26M6 21H46M8.5 31V46C8.5 46.663 8.23661 47.2989 7.76777 47.7678C7.29893 48.2366 6.66304 48.5 6 48.5H1" stroke="#BDA16B" stroke-width="2" stroke-linecap="round" stroke-linejoin="round"/>
</svg>
