<svg width="36" height="35" viewBox="0 0 36 35" fill="none" xmlns="http://www.w3.org/2000/svg">
<path d="M26.1311 7.94191C25.7859 7.94191 25.4484 8.04428 25.1614 8.23607C24.8743 8.42786 24.6506 8.70046 24.5185 9.0194C24.3864 9.33834 24.3518 9.6893 24.4192 10.0279C24.4865 10.3665 24.6528 10.6775 24.8969 10.9216C25.141 11.1657 25.452 11.3319 25.7906 11.3993C26.1291 11.4666 26.4801 11.4321 26.799 11.2999C27.118 11.1678 27.3906 10.9441 27.5824 10.6571C27.7742 10.37 27.8765 10.0326 27.8765 9.68736C27.8765 9.22444 27.6926 8.78047 27.3653 8.45314C27.038 8.1258 26.594 7.94191 26.1311 7.94191ZM32.822 11.4619C32.7937 10.2551 32.5677 9.06104 32.1529 7.92736C31.7831 6.95737 31.2074 6.07904 30.4656 5.35282C29.7454 4.60725 28.865 4.03525 27.8911 3.68009C26.7604 3.25269 25.565 3.02149 24.3565 2.99645C22.8147 2.90918 22.3202 2.90918 18.3638 2.90918C14.4074 2.90918 13.9129 2.90918 12.3711 2.99645C11.1626 3.02149 9.96722 3.25269 8.83654 3.68009C7.86443 4.03885 6.98481 4.61036 6.262 5.35282C5.51643 6.07307 4.94443 6.95345 4.58927 7.92736C4.16187 9.05804 3.93066 10.2534 3.90563 11.4619C3.81836 13.0037 3.81836 13.4983 3.81836 17.4546C3.81836 21.411 3.81836 21.9055 3.90563 23.4474C3.93066 24.6559 4.16187 25.8512 4.58927 26.9819C4.94443 27.9558 5.51643 28.8362 6.262 29.5564C6.98481 30.2989 7.86443 30.8704 8.83654 31.2292C9.96722 31.6566 11.1626 31.8878 12.3711 31.9128C13.9129 32.0001 14.4074 32.0001 18.3638 32.0001C22.3202 32.0001 22.8147 32.0001 24.3565 31.9128C25.565 31.8878 26.7604 31.6566 27.8911 31.2292C28.865 30.874 29.7454 30.302 30.4656 29.5564C31.2107 28.8329 31.7868 27.9538 32.1529 26.9819C32.5677 25.8482 32.7937 24.6542 32.822 23.4474C32.822 21.9055 32.9093 21.411 32.9093 17.4546C32.9093 13.4983 32.9093 13.0037 32.822 11.4619ZM30.2038 23.2728C30.1932 24.1961 30.026 25.1109 29.7093 25.9783C29.477 26.6113 29.104 27.1832 28.6184 27.651C28.1466 28.1317 27.5758 28.504 26.9456 28.7419C26.0783 29.0586 25.1635 29.2259 24.2402 29.2364C22.7856 29.3092 22.2474 29.3237 18.422 29.3237C14.5965 29.3237 14.0584 29.3237 12.6038 29.2364C11.6451 29.2544 10.6905 29.1068 9.78199 28.8001C9.1795 28.55 8.63488 28.1787 8.18199 27.7092C7.69921 27.2419 7.33086 26.6695 7.10563 26.0364C6.75051 25.1567 6.55355 24.2211 6.52381 23.2728C6.52381 21.8183 6.43654 21.2801 6.43654 17.4546C6.43654 13.6292 6.43654 13.091 6.52381 11.6365C6.53033 10.6925 6.70265 9.7571 7.0329 8.87281C7.28897 8.25887 7.68202 7.71159 8.18199 7.27282C8.62391 6.7727 9.17005 6.3755 9.78199 6.10918C10.6686 5.78924 11.6031 5.62202 12.5456 5.61463C14.0002 5.61463 14.5384 5.52736 18.3638 5.52736C22.1893 5.52736 22.7274 5.52736 24.182 5.61463C25.1053 5.62522 26.0201 5.79245 26.8874 6.10918C27.5484 6.35449 28.1417 6.75332 28.6184 7.27282C29.095 7.71962 29.4675 8.26588 29.7093 8.87281C30.0325 9.75854 30.1999 10.6936 30.2038 11.6365C30.2765 13.091 30.2911 13.6292 30.2911 17.4546C30.2911 21.2801 30.2765 21.8183 30.2038 23.2728ZM18.3638 9.99281C16.8886 9.99569 15.4474 10.4358 14.2222 11.2574C12.997 12.0791 12.0429 13.2455 11.4804 14.6092C10.9178 15.9729 10.7721 17.4728 11.0617 18.9193C11.3513 20.3657 12.0631 21.694 13.1072 22.7361C14.1513 23.7782 15.4809 24.4874 16.928 24.7741C18.375 25.0609 19.8746 24.9122 21.2372 24.347C22.5998 23.7819 23.7644 22.8255 24.5836 21.5987C25.4029 20.3719 25.8402 18.9298 25.8402 17.4546C25.8421 16.473 25.6499 15.5006 25.2747 14.5935C24.8995 13.6863 24.3486 12.8624 23.6538 12.1689C22.959 11.4754 22.1339 10.9262 21.2261 10.5527C20.3182 10.1793 19.3455 9.98898 18.3638 9.99281ZM18.3638 22.2983C17.4058 22.2983 16.4694 22.0142 15.6728 21.482C14.8763 20.9497 14.2555 20.1933 13.8889 19.3082C13.5223 18.4232 13.4264 17.4493 13.6132 16.5097C13.8001 15.5701 14.2614 14.7071 14.9388 14.0297C15.6162 13.3523 16.4793 12.891 17.4189 12.7041C18.3584 12.5172 19.3323 12.6131 20.2174 12.9797C21.1024 13.3463 21.8589 13.9671 22.3911 14.7637C22.9234 15.5602 23.2074 16.4967 23.2074 17.4546C23.2074 18.0907 23.0822 18.7206 22.8387 19.3082C22.5953 19.8959 22.2386 20.4298 21.7888 20.8796C21.339 21.3294 20.805 21.6862 20.2174 21.9296C19.6297 22.173 18.9999 22.2983 18.3638 22.2983Z" fill="#BDA16B"/>
</svg>
