<svg width="93" height="65" viewBox="0 0 93 65" fill="none" xmlns="http://www.w3.org/2000/svg">
<path d="M48.368 55.784C44.88 57.544 41.344 57.832 37.76 56.648C33.952 55.432 30.672 52.84 27.92 48.872C26.448 46.76 25.184 44.312 24.128 41.528L22.592 37.448H11.264L8.72 43.496C8.56 43.912 8.48 44.248 8.48 44.504C8.48 44.76 8.528 45.048 8.624 45.368C8.752 45.656 8.992 45.928 9.344 46.184C9.728 46.408 10.144 46.52 10.592 46.52H10.976V47H0.704V46.52H1.136C1.872 46.52 2.592 46.312 3.296 45.896C4.032 45.448 4.64 44.792 5.12 43.928L15.824 19.496C14.576 16.68 13.248 14.744 11.84 13.688C10.656 12.792 9.52 12.344 8.432 12.344C7.376 12.344 6.384 12.504 5.456 12.824L5.36 12.344C7.664 11.16 9.872 10.568 11.984 10.568C14.608 10.568 16.96 11.592 19.04 13.64C21.088 15.656 22.896 18.568 24.464 22.376L31.424 39.56C34.048 46.056 36.736 50.52 39.488 52.952C40.608 53.944 41.76 54.632 42.944 55.016C44.128 55.4 45.12 55.592 45.92 55.592C46.752 55.592 47.552 55.496 48.32 55.304L48.368 55.784ZM12.08 35.384H21.872L18.512 26.504C18.352 26.056 18.128 25.448 17.84 24.68C17.552 23.88 17.36 23.32 17.264 23L12.08 35.384Z" fill="#BDA16B"/>
<path d="M53.08 47.78C54.4667 47.78 55.5867 47.5067 56.44 46.96L56.58 47.12C55.4333 48.7067 54.0067 49.5867 52.3 49.76C51.94 49.8 51.6267 49.82 51.36 49.82C51.1067 49.82 50.8067 49.8067 50.46 49.78C50.1267 49.7667 49.6533 49.68 49.04 49.52C48.4267 49.36 47.8867 49.1933 47.42 49.02C46.9533 48.86 46.4133 48.64 45.8 48.36C45.1867 48.0933 44.68 47.8533 44.28 47.64C43.88 47.44 43.4 47.1933 42.84 46.9C42.2933 46.62 41.8133 46.38 41.4 46.18C40.9867 45.98 40.5867 45.8067 40.2 45.66C39.1067 45.22 37.9867 45 36.84 45V44.8H37.1C37.4467 44.8 37.74 44.68 37.98 44.44C38.2333 44.2 38.3667 43.9 38.38 43.54V32.46C38.3667 32.1 38.2333 31.8 37.98 31.56C37.74 31.32 37.4467 31.2 37.1 31.2H36.84V31H42.92L42.9 31.2H42.7C42.1933 31.2 41.8133 31.4067 41.56 31.82C41.44 32.0067 41.38 32.22 41.38 32.46V44.06C41.38 44.5 41.4667 44.8067 41.64 44.98C41.8133 45.14 42.0067 45.2533 42.22 45.32C47.2333 46.96 50.8533 47.78 53.08 47.78ZM61.7352 31.2H61.3952C61.1152 31.2 60.8685 31.2933 60.6552 31.48C60.4552 31.6533 60.3552 31.8733 60.3552 32.14V39.94C60.3552 41.58 59.8418 42.88 58.8152 43.84C57.7885 44.8 56.3818 45.28 54.5952 45.28C52.4885 45.28 50.8752 44.8133 49.7552 43.88C48.6352 42.9333 48.0752 41.6267 48.0752 39.96V32.2C48.0752 31.9067 47.9685 31.6667 47.7552 31.48C47.5552 31.2933 47.3085 31.2 47.0152 31.2H46.6952V31H52.4552V31.2H52.1352C51.8418 31.2 51.5952 31.2933 51.3952 31.48C51.1952 31.6533 51.0885 31.88 51.0752 32.16V39.8C51.0752 41.2133 51.4218 42.3333 52.1152 43.16C52.8085 43.9867 53.7618 44.4 54.9752 44.4C56.1885 44.4 57.1485 44.0133 57.8552 43.24C58.5618 42.4533 58.9218 41.3933 58.9352 40.06V32.16C58.9352 31.88 58.8285 31.6533 58.6152 31.48C58.4152 31.2933 58.1685 31.2 57.8752 31.2H57.5552V31H61.7352V31.2ZM72.3409 44.8C72.6209 44.8 72.8476 44.6667 73.0209 44.4C73.1009 44.2533 73.1409 44.1133 73.1409 43.98C73.1409 43.8467 73.1009 43.7133 73.0209 43.58L70.2209 39.22L67.2809 43.56C67.0543 43.96 67.1209 44.3067 67.4809 44.6C67.6409 44.7333 67.8076 44.8 67.9809 44.8H68.2409V45H63.3009V44.8H63.5809C64.3276 44.8 64.9876 44.4267 65.5609 43.68L69.5009 38.1L65.8009 32.38C65.5743 32.0467 65.2809 31.7667 64.9209 31.54C64.5609 31.3133 64.1809 31.2 63.7809 31.2H63.5009V31H70.3009V31.2H70.0409C69.7609 31.2 69.5343 31.3333 69.3609 31.6C69.2809 31.7467 69.2409 31.8933 69.2409 32.04C69.2409 32.1733 69.2743 32.3 69.3409 32.42L71.8409 36.28L74.3009 32.44C74.3809 32.3067 74.4209 32.1733 74.4209 32.04C74.4209 31.8933 74.3743 31.7533 74.2809 31.62C74.1076 31.34 73.8809 31.2 73.6009 31.2H73.3409V31H78.2609V31.2H77.9809C77.5809 31.2 77.2076 31.3133 76.8609 31.54C76.5143 31.7533 76.2209 32.0267 75.9809 32.36L72.5809 37.42L76.6009 43.64C76.8276 43.9733 77.1209 44.2533 77.4809 44.48C77.8543 44.6933 78.2343 44.8 78.6209 44.8H78.9009V45H72.0809V44.8H72.3409ZM80.8313 44.8C81.1779 44.8 81.4713 44.68 81.7113 44.44C81.9646 44.1867 82.0979 43.8867 82.1113 43.54V32.4C82.0713 31.9333 81.8513 31.5867 81.4513 31.36C81.2513 31.2533 81.0446 31.2 80.8313 31.2H80.5713V31H88.2313C88.6446 31 89.0979 30.96 89.5913 30.88C90.0846 30.8 90.4313 30.72 90.6313 30.64V34.14H90.4313V33.9C90.4313 33.3 90.2513 32.82 89.8913 32.46C89.5446 32.0867 89.0713 31.8867 88.4713 31.86H85.1113V37.68H87.7513C88.2446 37.6667 88.6513 37.5 88.9713 37.18C89.2913 36.8467 89.4513 36.44 89.4513 35.96V35.78H89.6513V40.4H89.4513V40.24C89.4513 39.5733 89.1846 39.08 88.6513 38.76C88.3846 38.6133 88.0913 38.5333 87.7713 38.52H85.1113V44.14H87.7313C88.7046 44.14 89.5179 43.86 90.1713 43.3C90.8379 42.74 91.3313 41.9467 91.6513 40.92H91.8513L90.9313 45H80.5713V44.8H80.8313Z" fill="#BDA16B"/>
<path d="M31.18 12.62C31.38 12.7 31.7267 12.78 32.22 12.86C32.7267 12.94 33.08 12.98 33.28 12.98C33.4933 12.98 33.6 12.98 33.6 12.98H39.98C40.6333 12.98 41.1333 12.9467 41.48 12.88C41.8267 12.8 42.0267 12.7467 42.08 12.72V12.9L34.68 26.16H38.88C39.7333 26.16 40.4733 25.8733 41.1 25.3C41.74 24.7267 42.1933 23.9533 42.46 22.98H42.66L41.94 27H30.9V26.82L38.24 13.82H33.4C32.7867 13.8333 32.2933 14.0267 31.92 14.4C31.56 14.76 31.38 15.2467 31.38 15.86V16.1H31.18V12.62ZM60.4031 13.2H60.0631C59.7831 13.2 59.5365 13.2933 59.3231 13.48C59.1231 13.6533 59.0231 13.8733 59.0231 14.14V21.94C59.0231 23.58 58.5098 24.88 57.4831 25.84C56.4565 26.8 55.0498 27.28 53.2631 27.28C51.1565 27.28 49.5431 26.8133 48.4231 25.88C47.3031 24.9333 46.7431 23.6267 46.7431 21.96V14.2C46.7431 13.9067 46.6365 13.6667 46.4231 13.48C46.2231 13.2933 45.9765 13.2 45.6831 13.2H45.3631V13H51.1231V13.2H50.8031C50.5098 13.2 50.2631 13.2933 50.0631 13.48C49.8631 13.6533 49.7565 13.88 49.7431 14.16V21.8C49.7431 23.2133 50.0898 24.3333 50.7831 25.16C51.4765 25.9867 52.4298 26.4 53.6431 26.4C54.8565 26.4 55.8165 26.0133 56.5231 25.24C57.2298 24.4533 57.5898 23.3933 57.6031 22.06V14.16C57.6031 13.88 57.4965 13.6533 57.2831 13.48C57.0831 13.2933 56.8365 13.2 56.5431 13.2H56.2231V13H60.4031V13.2ZM68.6131 13.88H67.7531C67.7265 13.88 67.7065 13.88 67.6931 13.88V25.54C67.7065 26.0333 67.9198 26.4 68.3331 26.64C68.5331 26.7467 68.7465 26.8 68.9731 26.8H69.2331V27H63.1531V26.8H63.4131C63.8931 26.8 64.2598 26.5933 64.5131 26.18C64.6198 25.9933 64.6798 25.7867 64.6931 25.56V14.46C64.6798 14.1133 64.5465 13.82 64.2931 13.58C64.0531 13.3267 63.7598 13.2 63.4131 13.2H63.1531V13H70.0131C71.3065 13 72.3998 13.28 73.2931 13.84C73.7465 14.12 74.1065 14.5133 74.3731 15.02C74.6398 15.5133 74.7731 16.08 74.7731 16.72C74.7731 17.3467 74.6598 17.9267 74.4331 18.46C74.2198 18.9933 73.8531 19.46 73.3331 19.86C72.8265 20.26 72.2131 20.5 71.4931 20.58C72.2665 20.8333 72.9465 21.42 73.5331 22.34C74.9731 24.6467 76.0398 26.02 76.7331 26.46C77.0798 26.6733 77.5131 26.7867 78.0331 26.8V27H76.0731C74.9398 27 73.9931 26.8467 73.2331 26.54C72.4731 26.22 71.8531 25.68 71.3731 24.92C71.1331 24.5333 70.8265 23.9533 70.4531 23.18C70.0798 22.3933 69.8331 21.8333 69.7131 21.5C69.3531 20.7 68.8998 20.2533 68.3531 20.16V19.96H68.9731C69.5731 19.96 70.0998 19.78 70.5531 19.42C71.0198 19.06 71.3331 18.4733 71.4931 17.66C71.5465 17.38 71.5731 17.16 71.5731 17C71.5731 15.9067 71.3531 15.12 70.9131 14.64C70.4731 14.1467 69.9065 13.8933 69.2131 13.88C69.0798 13.88 68.8798 13.88 68.6131 13.88ZM79.4406 26.8C79.7873 26.8 80.0806 26.68 80.3206 26.44C80.574 26.1867 80.7073 25.8867 80.7206 25.54V14.4C80.6806 13.9333 80.4606 13.5867 80.0606 13.36C79.8606 13.2533 79.654 13.2 79.4406 13.2H79.1806V13H86.8406C87.254 13 87.7073 12.96 88.2006 12.88C88.694 12.8 89.0406 12.72 89.2406 12.64V16.14H89.0406V15.9C89.0406 15.3 88.8606 14.82 88.5006 14.46C88.154 14.0867 87.6806 13.8867 87.0806 13.86H83.7206V19.68H86.3606C86.854 19.6667 87.2606 19.5 87.5806 19.18C87.9006 18.8467 88.0606 18.44 88.0606 17.96V17.78H88.2606V22.4H88.0606V22.24C88.0606 21.5733 87.794 21.08 87.2606 20.76C86.994 20.6133 86.7006 20.5333 86.3806 20.52H83.7206V26.14H86.3406C87.314 26.14 88.1273 25.86 88.7806 25.3C89.4473 24.74 89.9406 23.9467 90.2606 22.92H90.4606L89.5406 27H79.1806V26.8H79.4406Z" fill="#BDA16B"/>
</svg>
