<svg width="96" height="67" viewBox="0 0 96 67" fill="none" xmlns="http://www.w3.org/2000/svg">
<path d="M50.3 58.15C46.6667 59.9833 42.9833 60.2833 39.25 59.05C35.2833 57.7833 31.8667 55.0833 29 50.95C27.4667 48.75 26.15 46.2 25.05 43.3L23.45 39.05H11.65L9 45.35C8.83333 45.7833 8.75 46.1333 8.75 46.4C8.75 46.6667 8.8 46.9667 8.9 47.3C9.03333 47.6 9.28333 47.8833 9.65 48.15C10.05 48.3833 10.4833 48.5 10.95 48.5H11.35V49H0.65V48.5H1.1C1.86667 48.5 2.61667 48.2833 3.35 47.85C4.11667 47.3833 4.75 46.7 5.25 45.8L16.4 20.35C15.1 17.4167 13.7167 15.4 12.25 14.3C11.0167 13.3667 9.83333 12.9 8.7 12.9C7.6 12.9 6.56667 13.0667 5.6 13.4L5.5 12.9C7.9 11.6667 10.2 11.05 12.4 11.05C15.1333 11.05 17.5833 12.1167 19.75 14.25C21.8833 16.35 23.7667 19.3833 25.4 23.35L32.65 41.25C35.3833 48.0167 38.1833 52.6667 41.05 55.2C42.2167 56.2333 43.4167 56.95 44.65 57.35C45.8833 57.75 46.9167 57.95 47.75 57.95C48.6167 57.95 49.45 57.85 50.25 57.65L50.3 58.15ZM12.5 36.9H22.7L19.2 27.65C19.0333 27.1833 18.8 26.55 18.5 25.75C18.2 24.9167 18 24.3333 17.9 24L12.5 36.9Z" fill="#BDA16B"/>
<path d="M56.08 50.78C57.4667 50.78 58.5867 50.5067 59.44 49.96L59.58 50.12C58.4333 51.7067 57.0067 52.5867 55.3 52.76C54.94 52.8 54.6267 52.82 54.36 52.82C54.1067 52.82 53.8067 52.8067 53.46 52.78C53.1267 52.7667 52.6533 52.68 52.04 52.52C51.4267 52.36 50.8867 52.1933 50.42 52.02C49.9533 51.86 49.4133 51.64 48.8 51.36C48.1867 51.0933 47.68 50.8533 47.28 50.64C46.88 50.44 46.4 50.1933 45.84 49.9C45.2933 49.62 44.8133 49.38 44.4 49.18C43.9867 48.98 43.5867 48.8067 43.2 48.66C42.1067 48.22 40.9867 48 39.84 48V47.8H40.1C40.4467 47.8 40.74 47.68 40.98 47.44C41.2333 47.2 41.3667 46.9 41.38 46.54V35.46C41.3667 35.1 41.2333 34.8 40.98 34.56C40.74 34.32 40.4467 34.2 40.1 34.2H39.84V34H45.92L45.9 34.2H45.7C45.1933 34.2 44.8133 34.4067 44.56 34.82C44.44 35.0067 44.38 35.22 44.38 35.46V47.06C44.38 47.5 44.4667 47.8067 44.64 47.98C44.8133 48.14 45.0067 48.2533 45.22 48.32C50.2333 49.96 53.8533 50.78 56.08 50.78ZM64.7352 34.2H64.3952C64.1152 34.2 63.8685 34.2933 63.6552 34.48C63.4552 34.6533 63.3552 34.8733 63.3552 35.14V42.94C63.3552 44.58 62.8418 45.88 61.8152 46.84C60.7885 47.8 59.3818 48.28 57.5952 48.28C55.4885 48.28 53.8752 47.8133 52.7552 46.88C51.6352 45.9333 51.0752 44.6267 51.0752 42.96V35.2C51.0752 34.9067 50.9685 34.6667 50.7552 34.48C50.5552 34.2933 50.3085 34.2 50.0152 34.2H49.6952V34H55.4552V34.2H55.1352C54.8418 34.2 54.5952 34.2933 54.3952 34.48C54.1952 34.6533 54.0885 34.88 54.0752 35.16V42.8C54.0752 44.2133 54.4218 45.3333 55.1152 46.16C55.8085 46.9867 56.7618 47.4 57.9752 47.4C59.1885 47.4 60.1485 47.0133 60.8552 46.24C61.5618 45.4533 61.9218 44.3933 61.9352 43.06V35.16C61.9352 34.88 61.8285 34.6533 61.6152 34.48C61.4152 34.2933 61.1685 34.2 60.8752 34.2H60.5552V34H64.7352V34.2ZM75.3409 47.8C75.6209 47.8 75.8476 47.6667 76.0209 47.4C76.1009 47.2533 76.1409 47.1133 76.1409 46.98C76.1409 46.8467 76.1009 46.7133 76.0209 46.58L73.2209 42.22L70.2809 46.56C70.0543 46.96 70.1209 47.3067 70.4809 47.6C70.6409 47.7333 70.8076 47.8 70.9809 47.8H71.2409V48H66.3009V47.8H66.5809C67.3276 47.8 67.9876 47.4267 68.5609 46.68L72.5009 41.1L68.8009 35.38C68.5743 35.0467 68.2809 34.7667 67.9209 34.54C67.5609 34.3133 67.1809 34.2 66.7809 34.2H66.5009V34H73.3009V34.2H73.0409C72.7609 34.2 72.5343 34.3333 72.3609 34.6C72.2809 34.7467 72.2409 34.8933 72.2409 35.04C72.2409 35.1733 72.2743 35.3 72.3409 35.42L74.8409 39.28L77.3009 35.44C77.3809 35.3067 77.4209 35.1733 77.4209 35.04C77.4209 34.8933 77.3743 34.7533 77.2809 34.62C77.1076 34.34 76.8809 34.2 76.6009 34.2H76.3409V34H81.2609V34.2H80.9809C80.5809 34.2 80.2076 34.3133 79.8609 34.54C79.5143 34.7533 79.2209 35.0267 78.9809 35.36L75.5809 40.42L79.6009 46.64C79.8276 46.9733 80.1209 47.2533 80.4809 47.48C80.8543 47.6933 81.2343 47.8 81.6209 47.8H81.9009V48H75.0809V47.8H75.3409ZM83.8313 47.8C84.1779 47.8 84.4713 47.68 84.7113 47.44C84.9646 47.1867 85.0979 46.8867 85.1113 46.54V35.4C85.0713 34.9333 84.8513 34.5867 84.4513 34.36C84.2513 34.2533 84.0446 34.2 83.8313 34.2H83.5713V34H91.2313C91.6446 34 92.0979 33.96 92.5913 33.88C93.0846 33.8 93.4313 33.72 93.6313 33.64V37.14H93.4313V36.9C93.4313 36.3 93.2513 35.82 92.8913 35.46C92.5446 35.0867 92.0713 34.8867 91.4713 34.86H88.1113V40.68H90.7513C91.2446 40.6667 91.6513 40.5 91.9713 40.18C92.2913 39.8467 92.4513 39.44 92.4513 38.96V38.78H92.6513V43.4H92.4513V43.24C92.4513 42.5733 92.1846 42.08 91.6513 41.76C91.3846 41.6133 91.0913 41.5333 90.7713 41.52H88.1113V47.14H90.7313C91.7046 47.14 92.5179 46.86 93.1713 46.3C93.8379 45.74 94.3313 44.9467 94.6513 43.92H94.8513L93.9313 48H83.5713V47.8H83.8313Z" fill="#BDA16B"/>
<path d="M32.18 12.62C32.38 12.7 32.7267 12.78 33.22 12.86C33.7267 12.94 34.08 12.98 34.28 12.98C34.4933 12.98 34.6 12.98 34.6 12.98H40.98C41.6333 12.98 42.1333 12.9467 42.48 12.88C42.8267 12.8 43.0267 12.7467 43.08 12.72V12.9L35.68 26.16H39.88C40.7333 26.16 41.4733 25.8733 42.1 25.3C42.74 24.7267 43.1933 23.9533 43.46 22.98H43.66L42.94 27H31.9V26.82L39.24 13.82H34.4C33.7867 13.8333 33.2933 14.0267 32.92 14.4C32.56 14.76 32.38 15.2467 32.38 15.86V16.1H32.18V12.62ZM61.4031 13.2H61.0631C60.7831 13.2 60.5365 13.2933 60.3231 13.48C60.1231 13.6533 60.0231 13.8733 60.0231 14.14V21.94C60.0231 23.58 59.5098 24.88 58.4831 25.84C57.4565 26.8 56.0498 27.28 54.2631 27.28C52.1565 27.28 50.5431 26.8133 49.4231 25.88C48.3031 24.9333 47.7431 23.6267 47.7431 21.96V14.2C47.7431 13.9067 47.6365 13.6667 47.4231 13.48C47.2231 13.2933 46.9765 13.2 46.6831 13.2H46.3631V13H52.1231V13.2H51.8031C51.5098 13.2 51.2631 13.2933 51.0631 13.48C50.8631 13.6533 50.7565 13.88 50.7431 14.16V21.8C50.7431 23.2133 51.0898 24.3333 51.7831 25.16C52.4765 25.9867 53.4298 26.4 54.6431 26.4C55.8565 26.4 56.8165 26.0133 57.5231 25.24C58.2298 24.4533 58.5898 23.3933 58.6031 22.06V14.16C58.6031 13.88 58.4965 13.6533 58.2831 13.48C58.0831 13.2933 57.8365 13.2 57.5431 13.2H57.2231V13H61.4031V13.2ZM69.6131 13.88H68.7531C68.7265 13.88 68.7065 13.88 68.6931 13.88V25.54C68.7065 26.0333 68.9198 26.4 69.3331 26.64C69.5331 26.7467 69.7465 26.8 69.9731 26.8H70.2331V27H64.1531V26.8H64.4131C64.8931 26.8 65.2598 26.5933 65.5131 26.18C65.6198 25.9933 65.6798 25.7867 65.6931 25.56V14.46C65.6798 14.1133 65.5465 13.82 65.2931 13.58C65.0531 13.3267 64.7598 13.2 64.4131 13.2H64.1531V13H71.0131C72.3065 13 73.3998 13.28 74.2931 13.84C74.7465 14.12 75.1065 14.5133 75.3731 15.02C75.6398 15.5133 75.7731 16.08 75.7731 16.72C75.7731 17.3467 75.6598 17.9267 75.4331 18.46C75.2198 18.9933 74.8531 19.46 74.3331 19.86C73.8265 20.26 73.2131 20.5 72.4931 20.58C73.2665 20.8333 73.9465 21.42 74.5331 22.34C75.9731 24.6467 77.0398 26.02 77.7331 26.46C78.0798 26.6733 78.5131 26.7867 79.0331 26.8V27H77.0731C75.9398 27 74.9931 26.8467 74.2331 26.54C73.4731 26.22 72.8531 25.68 72.3731 24.92C72.1331 24.5333 71.8265 23.9533 71.4531 23.18C71.0798 22.3933 70.8331 21.8333 70.7131 21.5C70.3531 20.7 69.8998 20.2533 69.3531 20.16V19.96H69.9731C70.5731 19.96 71.0998 19.78 71.5531 19.42C72.0198 19.06 72.3331 18.4733 72.4931 17.66C72.5465 17.38 72.5731 17.16 72.5731 17C72.5731 15.9067 72.3531 15.12 71.9131 14.64C71.4731 14.1467 70.9065 13.8933 70.2131 13.88C70.0798 13.88 69.8798 13.88 69.6131 13.88ZM80.4406 26.8C80.7873 26.8 81.0806 26.68 81.3206 26.44C81.574 26.1867 81.7073 25.8867 81.7206 25.54V14.4C81.6806 13.9333 81.4606 13.5867 81.0606 13.36C80.8606 13.2533 80.654 13.2 80.4406 13.2H80.1806V13H87.8406C88.254 13 88.7073 12.96 89.2006 12.88C89.694 12.8 90.0406 12.72 90.2406 12.64V16.14H90.0406V15.9C90.0406 15.3 89.8606 14.82 89.5006 14.46C89.154 14.0867 88.6806 13.8867 88.0806 13.86H84.7206V19.68H87.3606C87.854 19.6667 88.2606 19.5 88.5806 19.18C88.9006 18.8467 89.0606 18.44 89.0606 17.96V17.78H89.2606V22.4H89.0606V22.24C89.0606 21.5733 88.794 21.08 88.2606 20.76C87.994 20.6133 87.7006 20.5333 87.3806 20.52H84.7206V26.14H87.3406C88.314 26.14 89.1273 25.86 89.7806 25.3C90.4473 24.74 90.9406 23.9467 91.2606 22.92H91.4606L90.5406 27H80.1806V26.8H80.4406Z" fill="#BDA16B"/>
</svg>
