<svg width="29" height="23" viewBox="0 0 29 23" fill="none" xmlns="http://www.w3.org/2000/svg">
<path d="M27.6875 0.150024H1.1075C0.813773 0.150024 0.532076 0.266707 0.324379 0.474404C0.116683 0.6821 0 0.963797 0 1.25752V20.085C0 20.6725 0.233365 21.2359 0.648758 21.6513C1.06415 22.0667 1.62755 22.3 2.215 22.3H26.58C27.1675 22.3 27.7308 22.0667 28.1462 21.6513C28.5616 21.2359 28.795 20.6725 28.795 20.085V1.25752C28.795 0.963797 28.6783 0.6821 28.4706 0.474404C28.2629 0.266707 27.9812 0.150024 27.6875 0.150024ZM14.3975 11.938L3.95516 2.36502H24.8398L14.3975 11.938ZM10.3427 11.225L2.215 18.6743V3.7757L10.3427 11.225ZM11.9818 12.7271L13.643 14.2568C13.8473 14.4444 14.1146 14.5484 14.392 14.5484C14.6693 14.5484 14.9366 14.4444 15.1409 14.2568L16.8022 12.7271L24.8315 20.085H3.95516L11.9818 12.7271ZM18.4523 11.225L26.58 3.77432V18.6757L18.4523 11.225Z" fill="#BDA16B"/>
</svg>
