<svg width="26" height="23" viewBox="0 0 26 23" fill="none" xmlns="http://www.w3.org/2000/svg">
<path d="M25.615 2.04128C25.4952 1.95512 25.3557 1.89528 25.2072 1.86629C25.0586 1.8373 24.9048 1.83993 24.7575 1.87398L17.1162 3.63705L9.4475 0.0970518C9.23383 -0.00132548 8.98908 -0.0258824 8.7575 0.0278212L0.7575 1.87398C0.541161 1.92389 0.349103 2.03912 0.211853 2.20136C0.0746019 2.36359 3.37634e-05 2.56352 0 2.76936V19.3847C2.30059e-05 19.525 0.0346739 19.6634 0.101321 19.7895C0.167968 19.9155 0.264859 20.0259 0.384633 20.1122C0.504408 20.1985 0.643916 20.2585 0.792562 20.2876C0.941209 20.3167 1.09508 20.3141 1.2425 20.2801L8.88375 18.5171L16.5525 22.0571C16.6917 22.1204 16.8448 22.1536 17 22.154C17.0818 22.1539 17.1632 22.1446 17.2425 22.1263L25.2425 20.2801C25.4588 20.2302 25.6509 20.115 25.7881 19.9527C25.9254 19.7905 26 19.5906 26 19.3847V2.76936C26 2.62897 25.9654 2.49041 25.8987 2.36425C25.8319 2.23808 25.7349 2.12762 25.615 2.04128ZM10 2.41628L16 5.18551V19.7378L10 16.9686V2.41628ZM2 3.49051L8 2.1059V16.8174L2 18.2021V3.49051ZM24 18.6636L18 20.0482V5.33667L24 3.95205V18.6636Z" fill="#BDA16B"/>
</svg>
