<svg width="23" height="23" viewBox="0 0 23 23" fill="none" xmlns="http://www.w3.org/2000/svg">
<path d="M13.32 1.54254C13.3501 1.43009 13.4021 1.32468 13.4729 1.23231C13.5437 1.13995 13.632 1.06245 13.7328 1.00423C13.8336 0.94602 13.9449 0.908238 14.0603 0.893044C14.1757 0.877851 14.293 0.885545 14.4054 0.915687C16.0479 1.34424 17.5465 2.20289 18.7468 3.4032C19.9471 4.60351 20.8058 6.10209 21.2343 7.7446C21.2645 7.85702 21.2721 7.97429 21.257 8.08969C21.2418 8.20509 21.204 8.31637 21.1458 8.41716C21.0876 8.51795 21.01 8.60629 20.9177 8.67712C20.8253 8.74795 20.7199 8.79988 20.6075 8.82996C20.5326 8.84962 20.4556 8.85967 20.3782 8.85986C20.183 8.85986 19.9932 8.79536 19.8384 8.67639C19.6836 8.55743 19.5724 8.39066 19.5221 8.202C19.1726 6.86116 18.4718 5.63779 17.492 4.65799C16.5122 3.67819 15.2888 2.97742 13.948 2.6279C13.8355 2.59794 13.7299 2.54609 13.6374 2.47531C13.5449 2.40453 13.4673 2.31621 13.409 2.21541C13.3507 2.1146 13.3128 2.00329 13.2975 1.88783C13.2823 1.77237 13.2899 1.65504 13.32 1.54254ZM13.062 6.17193C14.5892 6.5795 15.5705 7.56075 15.9781 9.08801C16.0283 9.27667 16.1395 9.44344 16.2943 9.5624C16.4492 9.68137 16.6389 9.74586 16.8342 9.74587C16.9116 9.74567 16.9886 9.73563 17.0634 9.71597C17.1759 9.68589 17.2813 9.63396 17.3737 9.56313C17.466 9.4923 17.5435 9.40396 17.6017 9.30317C17.6599 9.20237 17.6977 9.0911 17.7129 8.9757C17.7281 8.8603 17.7204 8.74303 17.6903 8.63061C17.1232 6.50862 15.6414 5.02677 13.5194 4.45972C13.2923 4.39907 13.0505 4.43109 12.847 4.54875C12.6436 4.66641 12.4952 4.86007 12.4346 5.08713C12.3739 5.31418 12.406 5.55603 12.5236 5.75947C12.6413 5.96291 12.8349 6.11128 13.062 6.17193ZM22.1369 16.732C21.9395 18.2328 21.2025 19.6103 20.0636 20.6073C18.9247 21.6043 17.4618 22.1527 15.9482 22.15C7.15453 22.15 1.00215e-05 14.9955 1.00215e-05 6.20184C-0.00270336 4.68819 0.545666 3.22532 1.5427 2.08643C2.53973 0.947549 3.91724 0.210543 5.41795 0.013066C5.79744 -0.0332712 6.18175 0.0443666 6.51349 0.234389C6.84523 0.424412 7.10662 0.716629 7.25864 1.06742L9.5977 6.28933V6.30262C9.71408 6.57114 9.76215 6.8643 9.73761 7.15593C9.71306 7.44756 9.61667 7.72856 9.45704 7.97385C9.43711 8.00376 9.41607 8.03144 9.39392 8.05913L7.08808 10.7925C7.9176 12.4781 9.68076 14.2258 11.3885 15.0575L14.0842 12.7638C14.1107 12.7416 14.1384 12.7209 14.1673 12.7018C14.4124 12.5384 14.6943 12.4386 14.9877 12.4115C15.281 12.3844 15.5765 12.4309 15.8474 12.5468L15.8618 12.5534L21.0793 14.8914C21.4307 15.0428 21.7236 15.304 21.9142 15.6358C22.1049 15.9676 22.183 16.3522 22.1369 16.732ZM20.3782 16.5105C20.3782 16.5105 20.3705 16.5105 20.366 16.5105L15.1607 14.1792L12.4639 16.4729C12.4378 16.4951 12.4104 16.5158 12.382 16.5349C12.127 16.705 11.8322 16.8061 11.5265 16.8282C11.2207 16.8504 10.9145 16.7928 10.6377 16.6612C8.56328 15.6589 6.49556 13.6067 5.49216 11.5544C5.35929 11.2796 5.29966 10.9751 5.31907 10.6705C5.33847 10.3658 5.43624 10.0714 5.60291 9.81564C5.62169 9.78561 5.6428 9.7571 5.66604 9.73036L7.97409 6.99371L5.64831 1.78841C5.64788 1.78399 5.64788 1.77953 5.64831 1.77512C4.57431 1.91521 3.58821 2.44202 2.87468 3.25687C2.16115 4.07172 1.76912 5.11874 1.77203 6.20184C1.77613 9.96032 3.271 13.5637 5.92865 16.2213C8.58631 18.879 12.1897 20.3739 15.9482 20.378C17.0306 20.3817 18.0773 19.991 18.8927 19.2791C19.708 18.5671 20.2361 17.5825 20.3782 16.5094V16.5105Z" fill="#BDA16B"/>
</svg>
