<svg width="26" height="44" viewBox="0 0 26 44" fill="none" xmlns="http://www.w3.org/2000/svg">
<g filter="url(#filter0_d_436_17)">
<path d="M21 9.50064C21.0002 7.87136 20.5596 6.27636 19.7307 4.90558C18.9018 3.5348 17.7196 2.44601 16.3249 1.76886C14.9301 1.09172 13.3815 0.854758 11.8636 1.0862C10.3457 1.31764 8.92233 2.00772 7.76307 3.07428C6.60382 4.14083 5.7575 5.53891 5.32491 7.10202C4.89232 8.66514 4.89168 10.3274 5.32307 11.8909C5.75446 13.4544 6.59971 14.8532 7.75814 15.9208C8.91657 16.9883 10.3394 17.6796 11.8571 17.9124V33.7857C11.8571 34.1078 11.9776 34.4166 12.1919 34.6444C12.4062 34.8721 12.6969 35 13 35C13.3031 35 13.5938 34.8721 13.8081 34.6444C14.0224 34.4166 14.1429 34.1078 14.1429 33.7857V17.9124C16.0456 17.6177 17.7852 16.6059 19.044 15.0616C20.3029 13.5174 20.9971 11.5436 21 9.50064ZM12.1919 8.3162C11.0617 8.3162 10.765 15.2158 9.82531 14.5487C8.8856 13.8816 13.2181 9.50064 7.72069 11.824C7.28819 10.7146 12.7795 10.9142 13 9.7365C13.2205 8.55878 8.16023 6.05669 8.95939 5.2076C9.75855 4.35852 11.8915 9.97076 13 9.7365C14.1085 9.50223 13.0987 12.6653 14.1429 13.1248C15.187 13.5843 15.697 12.0214 16.3249 13.0199C16.3249 9.50064 15.3847 9.27129 15.3847 10.4721C15.3847 11.2694 18.5665 11.0874 18.2793 11.824C17.9921 12.5606 11.8571 8.3162 17.0406 13.7937C16.51 14.3575 17.0182 9.19553 16.3249 9.50064C15.6316 9.80575 12.9423 8.3162 12.1919 8.3162Z" fill="#BDA16B"/>
<path d="M21.5 9.50134V9.50069C21.5002 7.78183 21.0355 6.0971 20.1586 4.64686C19.2815 3.1964 18.0278 2.03981 16.5432 1.31907C15.0583 0.598139 13.4074 0.345041 11.7882 0.591909C10.1693 0.838748 8.65498 1.57427 7.42454 2.70632C6.19441 3.83808 5.29976 5.3183 4.84303 6.96866C4.38632 8.61892 4.38565 10.3732 4.84108 12.0239C5.29655 13.6746 6.19005 15.1556 7.4193 16.2884C8.54081 17.322 9.89875 18.0258 11.3571 18.3299V33.7857C11.3571 34.2309 11.5233 34.6636 11.8278 34.987L12.1919 34.6444L11.8278 34.987C12.1332 35.3116 12.5542 35.5 13 35.5C13.4458 35.5 13.8668 35.3116 14.1722 34.987L13.8081 34.6444L14.1722 34.987C14.4767 34.6636 14.6429 34.2309 14.6429 33.7857V18.3293C16.5052 17.9385 18.191 16.8994 19.4316 15.3776C20.765 13.7418 21.497 11.656 21.5 9.50134ZM9.75629 14.1643C9.75628 14.1643 9.75708 14.1633 9.7587 14.1617C9.75711 14.1636 9.7563 14.1644 9.75629 14.1643ZM10.1861 14.2411C10.1864 14.2426 10.1864 14.2434 10.1864 14.2435L10.1861 14.2411Z" stroke="#BDA16B"/>
</g>
<defs>
<filter id="filter0_d_436_17" x="0" y="0" width="26" height="44" filterUnits="userSpaceOnUse" color-interpolation-filters="sRGB">
<feFlood flood-opacity="0" result="BackgroundImageFix"/>
<feColorMatrix in="SourceAlpha" type="matrix" values="0 0 0 0 0 0 0 0 0 0 0 0 0 0 0 0 0 0 127 0" result="hardAlpha"/>
<feOffset dy="4"/>
<feGaussianBlur stdDeviation="2"/>
<feComposite in2="hardAlpha" operator="out"/>
<feColorMatrix type="matrix" values="0 0 0 0 0 0 0 0 0 0 0 0 0 0 0 0 0 0 0.25 0"/>
<feBlend mode="normal" in2="BackgroundImageFix" result="effect1_dropShadow_436_17"/>
<feBlend mode="normal" in="SourceGraphic" in2="effect1_dropShadow_436_17" result="shape"/>
</filter>
</defs>
</svg>
