<svg width="35" height="35" viewBox="0 0 35 35" fill="none" xmlns="http://www.w3.org/2000/svg">
<path d="M16.8073 3.34686C16.8712 3.21774 16.9699 3.10906 17.0923 3.03307C17.2147 2.95708 17.356 2.91681 17.5 2.91681C17.6441 2.91681 17.7853 2.95708 17.9077 3.03307C18.0301 3.10906 18.1288 3.21774 18.1927 3.34686L21.5615 10.1704C21.7834 10.6195 22.111 11.0081 22.5161 11.3027C22.9213 11.5974 23.3919 11.7893 23.8875 11.8621L31.4213 12.9646C31.564 12.9853 31.6981 13.0455 31.8084 13.1384C31.9188 13.2313 32.0009 13.3533 32.0455 13.4905C32.0901 13.6276 32.0954 13.7745 32.0609 13.9146C32.0263 14.0546 31.9533 14.1822 31.85 14.2829L26.4017 19.5883C26.0424 19.9385 25.7735 20.3707 25.6183 20.8478C25.4631 21.3249 25.4262 21.8325 25.5106 22.3271L26.7969 29.8229C26.8221 29.9656 26.8067 30.1125 26.7524 30.2468C26.6981 30.3812 26.6072 30.4975 26.49 30.5827C26.3728 30.6678 26.2339 30.7183 26.0894 30.7284C25.9449 30.7384 25.8004 30.7077 25.6725 30.6396L18.9379 27.0987C18.4942 26.8657 18.0005 26.744 17.4993 26.744C16.9981 26.744 16.5044 26.8657 16.0606 27.0987L9.32752 30.6396C9.19967 30.7073 9.05539 30.7377 8.9111 30.7274C8.7668 30.7172 8.62828 30.6666 8.51128 30.5816C8.39429 30.4965 8.30353 30.3803 8.24931 30.2461C8.1951 30.112 8.17961 29.9654 8.2046 29.8229L9.4894 22.3285C9.57426 21.8338 9.5375 21.3258 9.38226 20.8484C9.22703 20.371 8.95799 19.9385 8.59835 19.5883L3.15002 14.2844C3.04589 14.1838 2.97209 14.056 2.93705 13.9155C2.902 13.775 2.90712 13.6276 2.9518 13.4898C2.99649 13.3521 3.07895 13.2298 3.1898 13.1366C3.30065 13.0435 3.43542 12.9834 3.57877 12.9631L11.1111 11.8621C11.6073 11.7899 12.0785 11.5982 12.4842 11.3035C12.8899 11.0088 13.2179 10.62 13.44 10.1704L16.8073 3.34686Z" fill="#BDA16B"/>
</svg>
