<svg width="60" height="60" viewBox="0 0 60 60" fill="none" xmlns="http://www.w3.org/2000/svg">
<path d="M17.5 52.5H42.5M25 19.375C25.0006 19.042 25.0899 18.7151 25.2587 18.428C25.4276 18.141 25.6698 17.9041 25.9605 17.7416C26.2513 17.5792 26.58 17.4971 26.913 17.5039C27.2459 17.5106 27.5711 17.6059 27.855 17.78L37.015 23.4025C37.288 23.5703 37.5135 23.8052 37.6698 24.0848C37.8262 24.3645 37.9084 24.6796 37.9084 25C37.9084 25.3204 37.8262 25.6355 37.6698 25.9152C37.5135 26.1948 37.288 26.4297 37.015 26.5975L27.855 32.2225C27.5707 32.3968 27.2451 32.4921 26.9117 32.4986C26.5783 32.5052 26.2492 32.4227 25.9583 32.2596C25.6675 32.0966 25.4253 31.859 25.2569 31.5712C25.0884 31.2834 24.9997 30.956 25 30.6225V19.375ZM10 7.5H50C52.7614 7.5 55 9.73858 55 12.5V37.5C55 40.2614 52.7614 42.5 50 42.5H10C7.23858 42.5 5 40.2614 5 37.5V12.5C5 9.73858 7.23858 7.5 10 7.5Z" stroke="#BDA16B" stroke-width="3" stroke-linecap="round" stroke-linejoin="round"/>
</svg>
