<svg width="36" height="35" viewBox="0 0 36 35" fill="none" xmlns="http://www.w3.org/2000/svg">
<path d="M32.8182 8.43636C31.7249 8.91068 30.5686 9.22423 29.3855 9.36727C30.6337 8.62155 31.5691 7.4484 32.0182 6.06545C30.8452 6.76372 29.5611 7.2557 28.2218 7.51999C27.3266 6.54919 26.1345 5.90297 24.8325 5.68269C23.5304 5.4624 22.1921 5.68052 21.0273 6.30282C19.8626 6.92511 18.9374 7.9164 18.3967 9.12121C17.8561 10.326 17.7306 11.6762 18.04 12.96C15.6683 12.84 13.3483 12.2225 11.2308 11.1474C9.11328 10.0724 7.24562 8.56391 5.74911 6.71999C5.22422 7.6366 4.94841 8.67464 4.94911 9.7309C4.94725 10.7118 5.18797 11.678 5.64985 12.5434C6.11172 13.4087 6.78041 14.1465 7.59638 14.6909C6.64799 14.6651 5.71986 14.4106 4.89093 13.9491V14.0218C4.89804 15.3962 5.37965 16.7259 6.2543 17.7861C7.12895 18.8463 8.34294 19.5718 9.69093 19.84C9.17203 19.9979 8.63329 20.0812 8.09093 20.0873C7.7155 20.0829 7.341 20.0488 6.97093 19.9854C7.3548 21.1677 8.09765 22.2009 9.09613 22.9413C10.0946 23.6817 11.299 24.0924 12.5418 24.1164C10.4432 25.7677 7.85222 26.6689 5.18184 26.6764C4.69564 26.6779 4.20982 26.6488 3.72729 26.5891C6.45374 28.3495 9.63102 29.2839 12.8764 29.28C15.1159 29.3032 17.3377 28.88 19.4118 28.035C21.486 27.19 23.371 25.9402 24.9567 24.3585C26.5424 22.7769 27.7971 20.8951 28.6474 18.8231C29.4977 16.7511 29.9266 14.5305 29.9091 12.2909C29.9091 12.0436 29.9091 11.7818 29.9091 11.52C31.0505 10.6688 32.0349 9.62534 32.8182 8.43636Z" fill="#BDA16B"/>
</svg>
