<svg width="48" height="48" viewBox="0 0 48 48" fill="none" xmlns="http://www.w3.org/2000/svg">
<path d="M13.75 13.75L20.5 20.5M27.5 20.5L34.25 13.75M13.75 34.25L20.5 27.5M27.5 27.5L34.25 34.25M6.5 1.5H41.5C44.2614 1.5 46.5 3.73858 46.5 6.5V41.5C46.5 44.2614 44.2614 46.5 41.5 46.5H6.5C3.73858 46.5 1.5 44.2614 1.5 41.5V6.5C1.5 3.73858 3.73858 1.5 6.5 1.5ZM14 12.75C14 13.4404 13.4404 14 12.75 14C12.0596 14 11.5 13.4404 11.5 12.75C11.5 12.0596 12.0596 11.5 12.75 11.5C13.4404 11.5 14 12.0596 14 12.75ZM36.5 12.75C36.5 13.4404 35.9404 14 35.25 14C34.5596 14 34 13.4404 34 12.75C34 12.0596 34.5596 11.5 35.25 11.5C35.9404 11.5 36.5 12.0596 36.5 12.75ZM14 35.25C14 35.9404 13.4404 36.5 12.75 36.5C12.0596 36.5 11.5 35.9404 11.5 35.25C11.5 34.5596 12.0596 34 12.75 34C13.4404 34 14 34.5596 14 35.25ZM36.5 35.25C36.5 35.9404 35.9404 36.5 35.25 36.5C34.5596 36.5 34 35.9404 34 35.25C34 34.5596 34.5596 34 35.25 34C35.9404 34 36.5 34.5596 36.5 35.25ZM29 24C29 26.7614 26.7614 29 24 29C21.2386 29 19 26.7614 19 24C19 21.2386 21.2386 19 24 19C26.7614 19 29 21.2386 29 24Z" stroke="#BDA16B" stroke-width="3" stroke-linecap="round" stroke-linejoin="round"/>
</svg>
