<svg width="48" height="52" viewBox="0 0 48 52" fill="none" xmlns="http://www.w3.org/2000/svg">
<path d="M1.5 11H9M36.5 11H36.525M24 41C30.9036 41 36.5 35.4036 36.5 28.5C36.5 21.5964 30.9036 16 24 16M24 41C17.0964 41 11.5 35.4036 11.5 28.5C11.5 21.5964 17.0964 16 24 16M24 41C25.6576 41 27.2473 40.3415 28.4194 39.1694C29.5915 37.9973 30.25 36.4076 30.25 34.75C30.25 33.0924 29.5915 31.5027 28.4194 30.3306C27.2473 29.1585 25.6576 28.5 24 28.5C22.3424 28.5 20.7527 27.8415 19.5806 26.6694C18.4085 25.4973 17.75 23.9076 17.75 22.25C17.75 20.5924 18.4085 19.0027 19.5806 17.8306C20.7527 16.6585 22.3424 16 24 16M6.5 1H41.5C44.2614 1 46.5 3.23858 46.5 6V46C46.5 48.7614 44.2614 51 41.5 51H6.5C3.73858 51 1.5 48.7614 1.5 46V6C1.5 3.23858 3.73858 1 6.5 1Z" stroke="#BDA16B" stroke-width="2" stroke-linecap="round" stroke-linejoin="round"/>
</svg>
