<svg width="49" height="54" viewBox="0 0 49 54" fill="none" xmlns="http://www.w3.org/2000/svg">
<path d="M2 12H9.5M37 12H37.025M24.5 42C31.4036 42 37 36.4036 37 29.5C37 22.5964 31.4036 17 24.5 17M24.5 42C17.5964 42 12 36.4036 12 29.5C12 22.5964 17.5964 17 24.5 17M24.5 42C26.1576 42 27.7473 41.3415 28.9194 40.1694C30.0915 38.9973 30.75 37.4076 30.75 35.75C30.75 34.0924 30.0915 32.5027 28.9194 31.3306C27.7473 30.1585 26.1576 29.5 24.5 29.5C22.8424 29.5 21.2527 28.8415 20.0806 27.6694C18.9085 26.4973 18.25 24.9076 18.25 23.25C18.25 21.5924 18.9085 20.0027 20.0806 18.8306C21.2527 17.6585 22.8424 17 24.5 17M7 2H42C44.7614 2 47 4.23858 47 7V47C47 49.7614 44.7614 52 42 52H7C4.23858 52 2 49.7614 2 47V7C2 4.23858 4.23858 2 7 2Z" stroke="#BDA16B" stroke-width="3" stroke-linecap="round" stroke-linejoin="round"/>
</svg>
