<svg width="60" height="60" viewBox="0 0 60 60" fill="none" xmlns="http://www.w3.org/2000/svg">
<path d="M5 15C6.5 16.25 8 17.5 11.25 17.5C17.5 17.5 17.5 12.5 23.75 12.5C30.25 12.5 29.75 17.5 36.25 17.5C42.5 17.5 42.5 12.5 48.75 12.5C52 12.5 53.5 13.75 55 15M5 30C6.5 31.25 8 32.5 11.25 32.5C17.5 32.5 17.5 27.5 23.75 27.5C30.25 27.5 29.75 32.5 36.25 32.5C42.5 32.5 42.5 27.5 48.75 27.5C52 27.5 53.5 28.75 55 30M5 45C6.5 46.25 8 47.5 11.25 47.5C17.5 47.5 17.5 42.5 23.75 42.5C30.25 42.5 29.75 47.5 36.25 47.5C42.5 47.5 42.5 42.5 48.75 42.5C52 42.5 53.5 43.75 55 45" stroke="#BDA16B" stroke-width="2" stroke-linecap="round" stroke-linejoin="round"/>
</svg>
