<svg width="36" height="35" viewBox="0 0 36 35" fill="none" xmlns="http://www.w3.org/2000/svg">
<path d="M34.1815 14.1236C34.2534 12.0416 33.7981 9.97523 32.8579 8.1163C32.2199 7.35353 31.3346 6.83878 30.3561 6.66175C26.3088 6.29451 22.2448 6.144 18.1815 6.21084C14.133 6.14096 10.0836 6.28662 6.05061 6.64721C5.25326 6.79225 4.51537 7.16625 3.92698 7.72357C2.61789 8.93084 2.47243 10.9963 2.32698 12.7418C2.11594 15.88 2.11594 19.0289 2.32698 22.1672C2.36906 23.1496 2.51533 24.1248 2.76334 25.0763C2.93872 25.8109 3.29356 26.4906 3.79607 27.0545C4.38846 27.6413 5.14354 28.0366 5.96334 28.189C9.09922 28.5761 12.2589 28.7365 15.4179 28.669C20.5088 28.7417 24.9742 28.669 30.2542 28.2617C31.0942 28.1187 31.8705 27.7229 32.4797 27.1272C32.8869 26.7198 33.1911 26.2212 33.367 25.6727C33.8872 24.0765 34.1427 22.4059 34.1233 20.7272C34.1815 19.9127 34.1815 14.9963 34.1815 14.1236ZM14.8942 21.5999V12.5963L23.5052 17.1199C21.0906 18.4581 17.9052 19.9708 14.8942 21.5999Z" fill="#BDA16B"/>
</svg>
